<?xml version="1.0" encoding="utf-8"?>
<!-- Generator: Adobe Illustrator 18.0.0, SVG Export Plug-In . SVG Version: 6.00 Build 0)  -->
<!DOCTYPE svg PUBLIC "-//W3C//DTD SVG 1.1//EN" "http://www.w3.org/Graphics/SVG/1.1/DTD/svg11.dtd">
<svg version="1.1" id="Ebene_1" xmlns="http://www.w3.org/2000/svg" xmlns:xlink="http://www.w3.org/1999/xlink" x="0px" y="0px"
     viewBox="0 0 80 80" enable-background="new 0 0 80 80" xml:space="preserve">
<path fill="#444444" d="M63.4,47.8c-4.7,0-8.9,2.1-11.8,5.4l-19.8-9.9c0.2-1.1,0.3-2.1,0.3-3.3s-0.1-2.2-0.3-3.3l19.8-9.9
    c2.9,3.3,7.1,5.4,11.8,5.4c8.6,0,15.6-7,15.6-15.6S72,1,63.4,1S47.8,8,47.8,16.6c0,1.1,0.1,2.2,0.3,3.3l-19.8,9.9
    c-2.9-3.3-7.1-5.4-11.8-5.4C8,24.4,1,31.4,1,40s7,15.6,15.6,15.6c4.7,0,8.9-2.1,11.8-5.4l19.8,9.9c-0.2,1.1-0.3,2.1-0.3,3.3
    c0,8.6,7,15.6,15.6,15.6S79,72,79,63.4S72,47.8,63.4,47.8z M63.4,8.8c4.3,0,7.8,3.5,7.8,7.8s-3.5,7.8-7.8,7.8s-7.8-3.5-7.8-7.8
    S59.1,8.8,63.4,8.8z M16.6,47.8c-4.3,0-7.8-3.5-7.8-7.8s3.5-7.8,7.8-7.8s7.8,3.5,7.8,7.8S20.9,47.8,16.6,47.8z M63.4,71.2
    c-4.3,0-7.8-3.5-7.8-7.8s3.5-7.8,7.8-7.8s7.8,3.5,7.8,7.8S67.7,71.2,63.4,71.2z"/>
</svg>
